#!OML:ASF F:\VICON\USERDATA\INSTALL\rory3\rory3.ASF
:FULLY-SPECIFIED
:DEGREES
1031
root -0.67146 18.3619 -0.727689 -342.227 -76.4181 340.708
lowerback 5.65255 0.0794946 -0.0503471
upperback 2.10061 -0.027734 -3.82552
thorax -1.00789 -0.0359878 -3.91566
lowerneck -0.825138 -16.5755 -13.2486
upperneck 11.5107 -24.6865 16.9312
head 7.45149 -11.9713 5.08259
rclavicle -1.80894e-014 -4.77083e-015
rhumerus 65.8127 -49.5099 -63.7401
rradius 52.2914
rwrist -15.292
rhand -33.4256 -3.46884
rfingers 7.12502
rthumb -6.62512 -33.3452
lclavicle -1.80894e-014 -4.77083e-015
lhumerus -29.8593 31.0914 55.5783
lradius 66.3131
lwrist 50.7899
lhand -28.205 29.7019
lfingers 7.12502
lthumb -1.58387 59.6757
rfemur -1.28566 18.7215 16.3874
rtibia 21.7865
rfoot -19.7266 -21.9395
rtoes -7.10347
lfemur -7.50554 -8.99954 -3.76966
ltibia 27.7346
lfoot -16.0076 10.2649
ltoes -13.1933
1032
root -0.654132 18.3626 -0.708809 -342.833 -76.7571 341.256
lowerback 5.68175 0.178351 -0.0654368
upperback 2.14927 0.0980573 -3.94409
thorax -0.965117 0.026235 -4.0389
lowerneck -0.895169 -16.7043 -13.0997
upperneck 11.6523 -24.8535 16.7306
head 7.48832 -12.0454 4.96639
rclavicle 4.96962e-015 2.54444e-014
rhumerus 66.7956 -47.7443 -64.0104
rradius 53.3603
rwrist -13.9669
rhand -33.1485 -2.95102
rfingers 7.12502
rthumb -6.35753 -32.8356
lclavicle 4.96962e-015 2.54444e-014
lhumerus -28.7913 30.446 56.7742
lradius 66.3861
lwrist 51.5263
lhand -29.0486 29.6558
lfingers 7.12502
lthumb -2.39862 59.6221
rfemur -1.33433 18.8557 16.0399
rtibia 21.8133
rfoot -19.6129 -21.8154
rtoes -7.0293
lfemur -7.37304 -8.78674 -4.12622
ltibia 27.7897
lfoot -15.9973 10.3821
ltoes -13.5475
1033
root -0.636101 18.3648 -0.689205 -343.317 -77.0441 341.707
lowerback 5.70084 0.310339 -0.0955015
upperback 2.16531 0.269358 -3.99661
thorax -0.947045 0.111392 -4.08773
lowerneck -0.754715 -16.8615 -13.0839
upperneck 11.6427 -25.0806 16.6878
head 7.48873 -12.1634 4.92596
rclavicle -3.49861e-014 -6.20208e-014
rhumerus 66.6553 -45.9909 -62.9134
rradius 54.6938
rwrist -13.1355
rhand -33.2022 -2.87895
rfingers 7.12502
rthumb -6.40938 -32.762
lclavicle -3.49861e-014 -6.20208e-014
lhumerus -27.6952 29.6722 58.0742
lradius 66.2122
lwrist 51.9994
lhand -29.8839 30.2444
lfingers 7.12502
lthumb -3.20534 60.2
rfemur -1.44001 18.8096 15.7172
rtibia 21.8654
rfoot -19.5019 -21.66
rtoes -7.19257
lfemur -7.28322 -8.50002 -4.42452
ltibia 27.8094
lfoot -15.9406 10.4282
ltoes -13.9548
1034
root -0.615362 18.3674 -0.671836 -343.838 -77.3178 342.192
lowerback 5.81289 0.430735 -0.206073
upperback 2.16576 0.418996 -4.00697
thorax -0.999269 0.184735 -4.04668
lowerneck -0.492603 -16.9612 -13.2633
upperneck 11.4571 -25.2453 16.8805
head 7.46084 -12.2611 5.00458
rclavicle -2.22639e-014 2.22639e-014
rhumerus 66.455 -44.1631 -61.7229
rradius 56.0751
rwrist -12.2455
rhand -33.5862 -3.16989
rfingers 7.12502
rthumb -6.78012 -33.0413
lclavicle -2.22639e-014 2.22639e-014
lhumerus -26.6745 29.0709 59.2054
lradius 65.7122
lwrist 51.2872
lhand -28.7377 28.7251
lfingers 7.12502
lthumb -2.09839 58.6945
rfemur -1.55897 18.7963 15.4008
rtibia 21.9178
rfoot -19.395 -21.5141
rtoes -7.24269
lfemur -7.19883 -8.36303 -4.7247
ltibia 27.8141
lfoot -15.9344 10.4988
ltoes -14.0816
1035
root -0.593855 18.3707 -0.65549 -344.068 -77.6135 342.46
lowerback 5.88465 0.516389 -0.3103
upperback 2.16262 0.525275 -3.97528
thorax -1.03655 0.236948 -3.96243
lowerneck -0.475099 -17.0339 -13.4635
upperneck 11.407 -25.358 17.0124
head 7.5049 -12.3169 5.04953
rclavicle 2.52457e-014 -3.33958e-014
rhumerus 66.3826 -42.208 -60.5967
rradius 57.4371
rwrist -11.5291
rhand -33.7821 -3.11723
rfingers 7.12502
rthumb -6.96926 -32.9825
lclavicle 2.52457e-014 -3.33958e-014
lhumerus -25.7437 28.6505 60.2696
lradius 65.2811
lwrist 50.5798
lhand -27.4548 27.5999
lfingers 7.12502
lthumb -0.85933 57.5779
rfemur -1.73813 18.9301 15.125
rtibia 21.9338
rfoot -19.2868 -21.4247
rtoes -7.08437
lfemur -7.19987 -8.27639 -4.96554
ltibia 27.85
lfoot -15.9951 10.605
ltoes -13.6282
1036
root -0.574697 18.3722 -0.638069 -344.121 -77.9367 342.528
lowerback 5.92092 0.5613 -0.363903
upperback 2.17258 0.581542 -3.94535
thorax -1.04368 0.264719 -3.90499
lowerneck -0.712209 -17.1121 -13.4451
upperneck 11.6806 -25.4304 16.713
head 7.59968 -12.3379 4.91623
rclavicle 2.00773e-014 -5.88403e-014
rhumerus 66.3704 -40.1088 -59.4744
rradius 58.6865
rwrist -10.8342
rhand -33.8176 -3.04263
rfingers 7.12502
rthumb -7.00346 -32.9068
lclavicle 2.00773e-014 -5.88403e-014
lhumerus -24.9799 28.3689 61.2258
lradius 65.0732
lwrist 50.1119
lhand -27.0836 28.2894
lfingers 7.12502
lthumb -0.500814 58.2685
rfemur -1.86944 19.2162 14.9053
rtibia 21.9305
rfoot -19.2115 -21.4303
rtoes -6.95545
lfemur -7.15313 -8.22476 -5.18082
ltibia 27.889
lfoot -16.0864 10.7844
ltoes -13.239
1037
root -0.554985 18.371 -0.616878 -343.578 -78.2197 341.945
lowerback 5.96606 0.610881 -0.174805
upperback 2.22966 0.657986 -3.95247
thorax -1.00249 0.304035 -4.02491
lowerneck -1.13088 -17.1895 -13.1899
upperneck 12.0873 -25.4853 16.255
head 7.71198 -12.3355 4.69142
rclavicle -5.36719e-015 -4.77083e-014
rhumerus 66.3661 -38.048 -58.3975
rradius 59.7796
rwrist -9.75963
rhand -33.9585 -2.93246
rfingers 7.12502
rthumb -7.13946 -32.792
lclavicle -5.36719e-015 -4.77083e-014
lhumerus -24.1051 28.0725 62.1364
lradius 64.9613
lwrist 49.7186
lhand -26.6801 28.8635
lfingers 7.12502
lthumb -0.111161 58.8432
rfemur -1.95405 19.5477 14.8397
rtibia 21.9101
rfoot -19.2268 -21.4281
rtoes -6.64702
lfemur -7.07437 -8.21562 -5.25334
ltibia 27.9201
lfoot -16.1708 11.0057
ltoes -13.0479
1038
root -0.531549 18.3707 -0.589375 -344.021 -78.5179 342.389
lowerback 6.04052 0.699743 -0.131876
upperback 2.25958 0.773395 -4.03861
thorax -1.00314 0.361126 -4.14785
lowerneck -1.24711 -17.2562 -12.8802
upperneck 12.1345 -25.5377 16.0075
head 7.67842 -12.3521 4.56176
rclavicle 1.94809e-014 -6.52014e-014
rhumerus 66.1122 -36.1045 -56.9643
rradius 60.8988
rwrist -9.01726
rhand -34.0966 -2.38561
rfingers 7.12502
rthumb -7.2728 -32.2406
lclavicle 1.94809e-014 -6.52014e-014
lhumerus -23.2011 27.5077 63.0848
lradius 64.8468
lwrist 49.6185
lhand -26.4347 29.0787
lfingers 7.12502
lthumb 0.125924 59.0584
rfemur -2.07145 19.709 14.494
rtibia 21.894
rfoot -19.1957 -21.2992
rtoes -6.33129
lfemur -7.0161 -8.28017 -5.58577
ltibia 27.9275
lfoot -16.2002 11.2881
ltoes -13.0969
